<svg xmlns="http://www.w3.org/2000/svg" viewBox="0 0 800 340">
  <!-- Background -->
  <rect width="800" height="340" fill="#fafafa"/>
  
  <!-- Title -->
  <text x="400" y="35" font-family="'Hiragino Kaku Gothic Pro', 'Yu Gothic', sans-serif" font-size="18" fill="#333" text-anchor="middle">Webアプリの登場人物</text>
  
  <!-- User -->
  <g transform="translate(100, 130)">
    <circle cx="0" cy="-20" r="25" fill="none" stroke="#333" stroke-width="2"/>
    <circle cx="0" cy="-25" r="10" fill="none" stroke="#333" stroke-width="2"/>
    <path d="M -15,-5 Q 0,15 15,-5" fill="none" stroke="#333" stroke-width="2"/>
    <text x="0" y="30" font-family="'Hiragino Kaku Gothic Pro', sans-serif" font-size="14" fill="#333" text-anchor="middle">あなた</text>
    <text x="0" y="48" font-family="'Hiragino Kaku Gothic Pro', sans-serif" font-size="11" fill="#666" text-anchor="middle">(ブラウザ)</text>
  </g>
  
  <!-- Arrow 1 -->
  <g transform="translate(160, 110)">
    <line x1="0" y1="0" x2="80" y2="0" stroke="#999" stroke-width="1.5"/>
    <polygon points="85,0 75,-4 75,4" fill="#999"/>
  </g>
  
  <!-- Internet -->
  <g transform="translate(300, 130)">
    <circle cx="0" cy="-15" r="30" fill="none" stroke="#333" stroke-width="2"/>
    <ellipse cx="0" cy="-15" rx="30" ry="10" fill="none" stroke="#333" stroke-width="1.5"/>
    <ellipse cx="0" cy="-15" rx="10" ry="30" fill="none" stroke="#333" stroke-width="1.5"/>
    <text x="0" y="35" font-family="'Hiragino Kaku Gothic Pro', sans-serif" font-size="14" fill="#333" text-anchor="middle">インターネット</text>
    <text x="0" y="53" font-family="'Hiragino Kaku Gothic Pro', sans-serif" font-size="11" fill="#666" text-anchor="middle">(通り道)</text>
  </g>
  
  <!-- Arrow 2 -->
  <g transform="translate(360, 110)">
    <line x1="0" y1="0" x2="80" y2="0" stroke="#999" stroke-width="1.5"/>
    <polygon points="85,0 75,-4 75,4" fill="#999"/>
  </g>
  
  <!-- Server -->
  <g transform="translate(500, 130)">
    <rect x="-30" y="-45" width="60" height="50" rx="3" fill="none" stroke="#333" stroke-width="2"/>
    <line x1="-25" y1="-35" x2="25" y2="-35" stroke="#333" stroke-width="1.5"/>
    <line x1="-25" y1="-25" x2="25" y2="-25" stroke="#333" stroke-width="1.5"/>
    <circle cx="20" cy="-10" r="3" fill="#333"/>
    <text x="0" y="30" font-family="'Hiragino Kaku Gothic Pro', sans-serif" font-size="14" fill="#333" text-anchor="middle">サーバー</text>
    <text x="0" y="48" font-family="'Hiragino Kaku Gothic Pro', sans-serif" font-size="11" fill="#666" text-anchor="middle">(処理する)</text>
  </g>
  
  <!-- Arrow 3 -->
  <g transform="translate(560, 110)">
    <line x1="0" y1="0" x2="80" y2="0" stroke="#999" stroke-width="1.5"/>
    <polygon points="85,0 75,-4 75,4" fill="#999"/>
  </g>
  
  <!-- Database -->
  <g transform="translate(700, 130)">
    <ellipse cx="0" cy="-40" rx="30" ry="10" fill="none" stroke="#333" stroke-width="2"/>
    <path d="M -30,-40 L -30,0 Q 0,15 30,0 L 30,-40" fill="none" stroke="#333" stroke-width="2"/>
    <ellipse cx="0" cy="0" rx="30" ry="10" fill="none" stroke="#333" stroke-width="2"/>
    <text x="0" y="35" font-family="'Hiragino Kaku Gothic Pro', sans-serif" font-size="14" fill="#333" text-anchor="middle">データベース</text>
    <text x="0" y="53" font-family="'Hiragino Kaku Gothic Pro', sans-serif" font-size="11" fill="#666" text-anchor="middle">(保存する)</text>
  </g>
  
  <!-- Cafe comparison box -->
  <g transform="translate(50, 220)">
    <rect x="0" y="0" width="700" height="100" rx="8" fill="none" stroke="#ccc" stroke-width="1" stroke-dasharray="5,3"/>
    <text x="20" y="30" font-family="'Hiragino Kaku Gothic Pro', sans-serif" font-size="13" fill="#666">☕ カフェで例えると...</text>
    
    <text x="80" y="70" font-family="'Hiragino Kaku Gothic Pro', sans-serif" font-size="12" fill="#555" text-anchor="middle">お客さん</text>
    <text x="280" y="70" font-family="'Hiragino Kaku Gothic Pro', sans-serif" font-size="12" fill="#555" text-anchor="middle">店内の通路</text>
    <text x="480" y="70" font-family="'Hiragino Kaku Gothic Pro', sans-serif" font-size="12" fill="#555" text-anchor="middle">店員さん</text>
    <text x="660" y="70" font-family="'Hiragino Kaku Gothic Pro', sans-serif" font-size="12" fill="#555" text-anchor="middle">厨房・倉庫</text>
  </g>
</svg>
